<?xml version="1.0" encoding="us-ascii" standalone="no"?><svg xmlns="http://www.w3.org/2000/svg" xmlns:xlink="http://www.w3.org/1999/xlink" contentStyleType="text/css" height="604px" preserveAspectRatio="none" style="width:1135px;height:604px;background:#FFFFFF;" version="1.1" viewBox="0 0 1135 604" width="1135px" zoomAndPan="magnify"><defs/><g><text fill="#000000" font-family="sans-serif" font-size="14" font-weight="bold" lengthAdjust="spacing" textLength="201" x="460" y="24.5332">FaceGuard Deployment View</text><!--cluster Administrator workstation--><g id="cluster_Administrator workstation"><polygon fill="none" points="51,54.6094,61,44.6094,307,44.6094,307,132.6094,297,142.6094,51,142.6094,51,54.6094" style="stroke:#181818;stroke-width:1.0;"/><line style="stroke:#181818;stroke-width:1.0;" x1="297" x2="307" y1="54.6094" y2="44.6094"/><line style="stroke:#181818;stroke-width:1.0;" x1="51" x2="297" y1="54.6094" y2="54.6094"/><line style="stroke:#181818;stroke-width:1.0;" x1="297" x2="297" y1="54.6094" y2="142.6094"/><text fill="#000000" font-family="sans-serif" font-size="14" font-weight="bold" lengthAdjust="spacing" textLength="180" x="85" y="72.1426">Administrator workstation</text></g><!--cluster Central service host--><g id="cluster_Central service host"><polygon fill="none" points="16,202.6094,26,192.6094,302,192.6094,302,577.6094,292,587.6094,16,587.6094,16,202.6094" style="stroke:#181818;stroke-width:1.0;"/><line style="stroke:#181818;stroke-width:1.0;" x1="292" x2="302" y1="202.6094" y2="192.6094"/><line style="stroke:#181818;stroke-width:1.0;" x1="16" x2="292" y1="202.6094" y2="202.6094"/><line style="stroke:#181818;stroke-width:1.0;" x1="292" x2="292" y1="202.6094" y2="587.6094"/><text fill="#000000" font-family="sans-serif" font-size="14" font-weight="bold" lengthAdjust="spacing" textLength="143" x="83.5" y="220.1426">Central service host</text></g><!--cluster Edge recognition host--><g id="cluster_Edge recognition host"><polygon fill="none" points="326,202.6094,336,192.6094,768,192.6094,768,446.1094,758,456.1094,326,456.1094,326,202.6094" style="stroke:#181818;stroke-width:1.0;"/><line style="stroke:#181818;stroke-width:1.0;" x1="758" x2="768" y1="202.6094" y2="192.6094"/><line style="stroke:#181818;stroke-width:1.0;" x1="326" x2="758" y1="202.6094" y2="202.6094"/><line style="stroke:#181818;stroke-width:1.0;" x1="758" x2="758" y1="202.6094" y2="456.1094"/><text fill="#000000" font-family="sans-serif" font-size="14" font-weight="bold" lengthAdjust="spacing" textLength="156" x="465" y="220.1426">Edge recognition host</text></g><!--cluster Entrance hardware--><g id="cluster_Entrance hardware"><polygon fill="none" points="792,348.6094,802,338.6094,1118,338.6094,1118,450.6094,1108,460.6094,792,460.6094,792,348.6094" style="stroke:#181818;stroke-width:1.0;"/><line style="stroke:#181818;stroke-width:1.0;" x1="1108" x2="1118" y1="348.6094" y2="338.6094"/><line style="stroke:#181818;stroke-width:1.0;" x1="792" x2="1108" y1="348.6094" y2="348.6094"/><line style="stroke:#181818;stroke-width:1.0;" x1="1108" x2="1108" y1="348.6094" y2="460.6094"/><text fill="#000000" font-family="sans-serif" font-size="14" font-weight="bold" lengthAdjust="spacing" textLength="133" x="884.5" y="366.1426">Entrance hardware</text></g><!--entity Browser--><g id="elem_Browser"><rect fill="#F1F1F1" height="40.6094" rx="2.5" ry="2.5" style="stroke:#181818;stroke-width:0.5;" width="113" x="102.5" y="85.6094"/><polygon fill="#F1F1F1" points="198.5,90.6094,198.5,104.6094,210.5,104.6094,210.5,96.6094,204.5,90.6094,198.5,90.6094" style="stroke:#181818;stroke-width:0.5;"/><line style="stroke:#181818;stroke-width:0.5;" x1="204.5" x2="204.5" y1="90.6094" y2="96.6094"/><line style="stroke:#181818;stroke-width:0.5;" x1="210.5" x2="204.5" y1="96.6094" y2="96.6094"/><text fill="#000000" font-family="sans-serif" font-size="14" lengthAdjust="spacing" textLength="83" x="112.5" y="113.1426">Web browser</text></g><!--entity FE--><g id="elem_FE"><rect fill="#F1F1F1" height="40.6094" rx="2.5" ry="2.5" style="stroke:#181818;stroke-width:0.5;" width="253" x="32.5" y="233.6094"/><polygon fill="#F1F1F1" points="268.5,238.6094,268.5,252.6094,280.5,252.6094,280.5,244.6094,274.5,238.6094,268.5,238.6094" style="stroke:#181818;stroke-width:0.5;"/><line style="stroke:#181818;stroke-width:0.5;" x1="274.5" x2="274.5" y1="238.6094" y2="244.6094"/><line style="stroke:#181818;stroke-width:0.5;" x1="280.5" x2="274.5" y1="244.6094" y2="244.6094"/><text fill="#000000" font-family="sans-serif" font-size="14" lengthAdjust="spacing" textLength="223" x="42.5" y="261.1426">frontend container / Vite dev server</text></g><!--entity BE--><g id="elem_BE"><rect fill="#F1F1F1" height="40.6094" rx="2.5" ry="2.5" style="stroke:#181818;stroke-width:0.5;" width="250" x="34" y="391.6094"/><polygon fill="#F1F1F1" points="267,396.6094,267,410.6094,279,410.6094,279,402.6094,273,396.6094,267,396.6094" style="stroke:#181818;stroke-width:0.5;"/><line style="stroke:#181818;stroke-width:0.5;" x1="273" x2="273" y1="396.6094" y2="402.6094"/><line style="stroke:#181818;stroke-width:0.5;" x1="279" x2="273" y1="402.6094" y2="402.6094"/><text fill="#000000" font-family="sans-serif" font-size="14" lengthAdjust="spacing" textLength="220" x="44" y="419.1426">backend-service FastAPI container</text></g><!--entity PG--><g id="elem_PG"><path d="M86,534.6094 C86,524.6094 159,524.6094 159,524.6094 C159,524.6094 232,524.6094 232,534.6094 L232,561.2188 C232,571.2188 159,571.2188 159,571.2188 C159,571.2188 86,571.2188 86,561.2188 L86,534.6094 " fill="#F1F1F1" style="stroke:#181818;stroke-width:0.5;"/><path d="M86,534.6094 C86,544.6094 159,544.6094 159,544.6094 C159,544.6094 232,544.6094 232,534.6094 " fill="none" style="stroke:#181818;stroke-width:0.5;"/><text fill="#000000" font-family="sans-serif" font-size="14" lengthAdjust="spacing" textLength="126" x="96" y="563.1426">PostgreSQL volume</text></g><!--entity AG--><g id="elem_AG"><rect fill="#F1F1F1" height="40.6094" rx="2.5" ry="2.5" style="stroke:#181818;stroke-width:0.5;" width="231" x="520.5" y="233.6094"/><polygon fill="#F1F1F1" points="734.5,238.6094,734.5,252.6094,746.5,252.6094,746.5,244.6094,740.5,238.6094,734.5,238.6094" style="stroke:#181818;stroke-width:0.5;"/><line style="stroke:#181818;stroke-width:0.5;" x1="740.5" x2="740.5" y1="238.6094" y2="244.6094"/><line style="stroke:#181818;stroke-width:0.5;" x1="746.5" x2="740.5" y1="244.6094" y2="244.6094"/><text fill="#000000" font-family="sans-serif" font-size="14" lengthAdjust="spacing" textLength="201" x="530.5" y="261.1426">agent Python process/container</text></g><!--entity LDB--><g id="elem_LDB"><path d="M342.5,398.6094 C342.5,388.6094 427,388.6094 427,388.6094 C427,388.6094 511.5,388.6094 511.5,398.6094 L511.5,425.2188 C511.5,435.2188 427,435.2188 427,435.2188 C427,435.2188 342.5,435.2188 342.5,425.2188 L342.5,398.6094 " fill="#F1F1F1" style="stroke:#181818;stroke-width:0.5;"/><path d="M342.5,398.6094 C342.5,408.6094 427,408.6094 427,408.6094 C427,408.6094 511.5,408.6094 511.5,398.6094 " fill="none" style="stroke:#181818;stroke-width:0.5;"/><text fill="#000000" font-family="sans-serif" font-size="14" lengthAdjust="spacing" textLength="149" x="352.5" y="427.1426">agent SQLite events.db</text></g><!--entity Models--><g id="elem_Models"><path d="M549,384.1094 L590,384.1094 A3.75,3.75 0 0 1 592.5,386.6094 L599.5,405.1094 L749,405.1094 A2.5,2.5 0 0 1 751.5,407.6094 L751.5,437.2188 A2.5,2.5 0 0 1 749,439.7188 L549,439.7188 A2.5,2.5 0 0 1 546.5,437.2188 L546.5,386.6094 A2.5,2.5 0 0 1 549,384.1094 " fill="#F1F1F1" style="stroke:#181818;stroke-width:0.5;"/><line style="stroke:#181818;stroke-width:0.5;" x1="546.5" x2="599.5" y1="405.1094" y2="405.1094"/><text fill="#000000" font-family="sans-serif" font-size="14" lengthAdjust="spacing" textLength="175" x="556.5" y="426.6426">data/faces and data/models</text></g><!--entity Cam--><g id="elem_Cam"><polygon fill="#F1F1F1" points="808.5,389.6094,818.5,379.6094,923.5,379.6094,923.5,434.8281,913.5,444.8281,808.5,444.8281,808.5,389.6094" style="stroke:#181818;stroke-width:0.5;"/><line style="stroke:#181818;stroke-width:0.5;" x1="913.5" x2="923.5" y1="389.6094" y2="379.6094"/><line style="stroke:#181818;stroke-width:0.5;" x1="808.5" x2="913.5" y1="389.6094" y2="389.6094"/><line style="stroke:#181818;stroke-width:0.5;" x1="913.5" x2="913.5" y1="389.6094" y2="444.8281"/><text fill="#000000" font-family="sans-serif" font-size="14" font-style="italic" lengthAdjust="spacing" textLength="75" x="823.5" y="414.1426">&#171;hardware&#187;</text><text fill="#000000" font-family="sans-serif" font-size="14" lengthAdjust="spacing" textLength="50" x="836" y="431.752">Camera</text></g><!--entity Lock--><g id="elem_Lock"><polygon fill="#F1F1F1" points="958.5,389.6094,968.5,379.6094,1101.5,379.6094,1101.5,434.8281,1091.5,444.8281,958.5,444.8281,958.5,389.6094" style="stroke:#181818;stroke-width:0.5;"/><line style="stroke:#181818;stroke-width:0.5;" x1="1091.5" x2="1101.5" y1="389.6094" y2="379.6094"/><line style="stroke:#181818;stroke-width:0.5;" x1="958.5" x2="1091.5" y1="389.6094" y2="389.6094"/><line style="stroke:#181818;stroke-width:0.5;" x1="1091.5" x2="1091.5" y1="389.6094" y2="444.8281"/><text fill="#000000" font-family="sans-serif" font-size="14" font-style="italic" lengthAdjust="spacing" textLength="75" x="987.5" y="414.1426">&#171;hardware&#187;</text><text fill="#000000" font-family="sans-serif" font-size="14" lengthAdjust="spacing" textLength="103" x="973.5" y="431.752">Door relay / lock</text></g><!--link Browser to FE--><g id="link_Browser_FE"><path d="M159,126.7994 C159,154.6694 159,199.3194 159,227.2694 " fill="none" id="Browser-to-FE" style="stroke:#181818;stroke-width:1.0;"/><polygon fill="#181818" points="159,233.2694,163,224.2694,159,228.2694,155,224.2694,159,233.2694" style="stroke:#181818;stroke-width:1.0;"/><text fill="#000000" font-family="sans-serif" font-size="13" lengthAdjust="spacing" textLength="68" x="160" y="173.1045">HTTP :5173</text></g><!--link FE to BE--><g id="link_FE_BE"><path d="M159,274.8694 C159,304.8694 159,355.5994 159,385.5094 " fill="none" id="FE-to-BE" style="stroke:#181818;stroke-width:1.0;"/><polygon fill="#181818" points="159,391.5094,163,382.5094,159,386.5094,155,382.5094,159,391.5094" style="stroke:#181818;stroke-width:1.0;"/><text fill="#000000" font-family="sans-serif" font-size="13" lengthAdjust="spacing" textLength="132" x="160" y="319.1045">HTTP REST/WS :8000</text></g><!--link BE to PG--><g id="link_BE_PG"><path d="M159,432.8794 C159,457.3394 159,492.8894 159,518.5694 " fill="none" id="BE-to-PG" style="stroke:#181818;stroke-width:1.0;"/><polygon fill="#181818" points="159,524.5694,163,515.5694,159,519.5694,155,515.5694,159,524.5694" style="stroke:#181818;stroke-width:1.0;"/><text fill="#000000" font-family="sans-serif" font-size="13" lengthAdjust="spacing" textLength="57" x="160" y="491.1045">TCP 5432</text></g><!--link AG to BE--><g id="link_AG_BE"><path d="M530.18,274.6294 C469.43,287.3694 392.27,306.1894 326,330.6094 C279.19,347.8594 233.1336,370.9049 199.9036,388.6349 " fill="none" id="AG-to-BE" style="stroke:#181818;stroke-width:1.0;"/><polygon fill="#181818" points="194.61,391.4594,204.4334,390.7518,199.0214,389.1057,200.6675,383.6936,194.61,391.4594" style="stroke:#181818;stroke-width:1.0;"/><text fill="#000000" font-family="sans-serif" font-size="13" lengthAdjust="spacing" textLength="106" x="402" y="319.1045">HTTP REST :8000</text></g><!--link AG to LDB--><g id="link_AG_LDB"><path d="M607.09,274.8894 C585.39,289.8794 555.05,311.1594 529,330.6094 C503.51,349.6394 479.8344,368.3678 459.5044,384.7278 " fill="none" id="AG-to-LDB" style="stroke:#181818;stroke-width:1.0;"/><polygon fill="#181818" points="454.83,388.4894,464.3494,385.9632,458.7254,385.3547,459.3339,379.7307,454.83,388.4894" style="stroke:#181818;stroke-width:1.0;"/><text fill="#000000" font-family="sans-serif" font-size="13" lengthAdjust="spacing" textLength="47" x="565" y="319.1045">local file</text></g><!--link AG to Models--><g id="link_AG_Models"><path d="M637.65,274.8694 C639.95,302.4994 643.6427,367.8 646.2327,398.94 " fill="none" id="AG-to-Models" style="stroke:#181818;stroke-width:1.0;"/><polygon fill="#181818" points="646.73,404.9194,649.9703,395.6188,646.3156,399.9366,641.9978,396.2819,646.73,404.9194" style="stroke:#181818;stroke-width:1.0;"/><text fill="#000000" font-family="sans-serif" font-size="13" lengthAdjust="spacing" textLength="54" x="643" y="319.1045">local files</text></g><!--link AG to Cam--><g id="link_AG_Cam"><path d="M674,274.6394 C700.95,289.0194 737.57,309.6294 768,330.6094 C789.57,345.4794 807.6991,360.0209 825.8091,375.5009 " fill="none" id="AG-to-Cam" style="stroke:#181818;stroke-width:1.0;"/><polygon fill="#181818" points="830.37,379.3994,826.1277,370.511,826.5693,376.1506,820.9297,376.5922,830.37,379.3994" style="stroke:#181818;stroke-width:1.0;"/><text fill="#000000" font-family="sans-serif" font-size="13" lengthAdjust="spacing" textLength="124" x="755" y="319.1045">OpenCV device index</text></g><!--link AG to Lock--><g id="link_AG_Lock"><path d="M751.72,264.4694 C812.29,273.9094 885.23,292.8094 941,330.6094 C961.87,344.7494 978.5794,359.3357 994.9494,375.1857 " fill="none" id="AG-to-Lock" style="stroke:#181818;stroke-width:1.0;"/><polygon fill="#181818" points="999.26,379.3594,995.5766,370.2252,995.6679,375.8814,990.0118,375.9726,999.26,379.3594" style="stroke:#181818;stroke-width:1.0;"/><text fill="#000000" font-family="sans-serif" font-size="13" lengthAdjust="spacing" textLength="152" x="927" y="319.1045">GPIO or development stub</text></g><!--SRC=[RLDRJ_Cm37tlhx3wFZPk-b259krQaFX4OHCykuqtegN9b6GR4-A_u_GoAEAfZdsEVNoIUkaLmHmBIdTe1Knfgyon9EtXHT8XYhGH1F58b59BvorwO-5WxCPvzDBe63uY0BHUhh3m4BzI3har1qSs1dGmhkFei-qquTOM5N1oBmk2D-FyxoOhQxGdBQ3WBqfD5leinnC8sbVCfljyrk7bM6oOrcjxpz7vKNR_tQQM54W2FUReM5360jQM5ayFi3TgLr85oj9loJEn9h1KcBMMOUS_DUCwU9OT_Hi3jjOKv5o_EtYKTWRN39uR5gCz7zoPo2lamtJCq9LHWbUF0wNFKyW1iYdLiMHbobNW_rNuGsumM0Th-K8FQAcMsjYF9LciU1p2xMqB6WvFcAdXExQayCYsArDiQaqSTF4yiRbUwFM6V1cGmDrocK5oVVxlCk9pI8zFwUVPOjb_NK1oCnWCed5Tpb8kBoSPN5zTNaIZz0zEGsXgx0qNMHO_efLKrEPh6pebrzR2gWayRabFNi8R2ez3Qa7lfwPXkGJIxFuHU7c6a3BRwZTmVfT7Nm00]--></g></svg>