<?xml version="1.0" encoding="us-ascii" standalone="no"?><svg xmlns="http://www.w3.org/2000/svg" xmlns:xlink="http://www.w3.org/1999/xlink" contentStyleType="text/css" height="685px" preserveAspectRatio="none" style="width:1303px;height:685px;background:#FFFFFF;" version="1.1" viewBox="0 0 1303 685" width="1303px" zoomAndPan="magnify"><defs/><g><text fill="#000000" font-family="sans-serif" font-size="14" font-weight="bold" lengthAdjust="spacing" textLength="242" x="523.5" y="24.5332">FaceGuard Static Component View</text><!--cluster Browser--><g id="cluster_Browser"><polygon fill="none" points="16,196.1094,26,186.1094,240,186.1094,240,298.1094,230,308.1094,16,308.1094,16,196.1094" style="stroke:#181818;stroke-width:1.0;"/><line style="stroke:#181818;stroke-width:1.0;" x1="230" x2="240" y1="196.1094" y2="186.1094"/><line style="stroke:#181818;stroke-width:1.0;" x1="16" x2="230" y1="196.1094" y2="196.1094"/><line style="stroke:#181818;stroke-width:1.0;" x1="230" x2="230" y1="196.1094" y2="308.1094"/><text fill="#000000" font-family="sans-serif" font-size="14" font-weight="bold" lengthAdjust="spacing" textLength="59" x="94.5" y="213.6426">Browser</text></g><!--cluster Central server--><g id="cluster_Central server"><polygon fill="none" points="203,384.1094,213,374.1094,407,374.1094,407,658.1094,397,668.1094,203,668.1094,203,384.1094" style="stroke:#181818;stroke-width:1.0;"/><line style="stroke:#181818;stroke-width:1.0;" x1="397" x2="407" y1="384.1094" y2="374.1094"/><line style="stroke:#181818;stroke-width:1.0;" x1="203" x2="397" y1="384.1094" y2="384.1094"/><line style="stroke:#181818;stroke-width:1.0;" x1="397" x2="397" y1="384.1094" y2="668.1094"/><text fill="#000000" font-family="sans-serif" font-size="14" font-weight="bold" lengthAdjust="spacing" textLength="102" x="250" y="401.6426">Central server</text></g><!--cluster Edge device / laptop--><g id="cluster_Edge device / laptop"><polygon fill="none" points="583,196.1094,593,186.1094,1165,186.1094,1165,486.1094,1155,496.1094,583,496.1094,583,196.1094" style="stroke:#181818;stroke-width:1.0;"/><line style="stroke:#181818;stroke-width:1.0;" x1="1155" x2="1165" y1="196.1094" y2="186.1094"/><line style="stroke:#181818;stroke-width:1.0;" x1="583" x2="1155" y1="196.1094" y2="196.1094"/><line style="stroke:#181818;stroke-width:1.0;" x1="1155" x2="1155" y1="196.1094" y2="496.1094"/><text fill="#000000" font-family="sans-serif" font-size="14" font-weight="bold" lengthAdjust="spacing" textLength="144" x="798" y="213.6426">Edge device / laptop</text></g><!--cluster Hardware boundary--><g id="cluster_Hardware boundary"><polygon fill="none" points="964,556.1094,974,546.1094,1227,546.1094,1227,641.1094,1217,651.1094,964,651.1094,964,556.1094" style="stroke:#181818;stroke-width:1.0;"/><line style="stroke:#181818;stroke-width:1.0;" x1="1217" x2="1227" y1="556.1094" y2="546.1094"/><line style="stroke:#181818;stroke-width:1.0;" x1="964" x2="1217" y1="556.1094" y2="556.1094"/><line style="stroke:#181818;stroke-width:1.0;" x1="1217" x2="1217" y1="556.1094" y2="651.1094"/><text fill="#000000" font-family="sans-serif" font-size="14" font-weight="bold" lengthAdjust="spacing" textLength="137" x="1023" y="573.6426">Hardware boundary</text></g><!--entity Frontend--><g id="elem_Frontend"><rect fill="#F1F1F1" height="65.2188" rx="2.5" ry="2.5" style="stroke:#181818;stroke-width:0.5;" width="191" x="32.5" y="227.1094"/><rect fill="#F1F1F1" height="10" style="stroke:#181818;stroke-width:0.5;" width="15" x="203.5" y="232.1094"/><rect fill="#F1F1F1" height="2" style="stroke:#181818;stroke-width:0.5;" width="4" x="201.5" y="234.1094"/><rect fill="#F1F1F1" height="2" style="stroke:#181818;stroke-width:0.5;" width="4" x="201.5" y="238.1094"/><text fill="#000000" font-family="sans-serif" font-size="14" lengthAdjust="spacing" textLength="136" x="47.5" y="261.6426">React admin frontend</text><text fill="#000000" font-family="sans-serif" font-size="14" lengthAdjust="spacing" textLength="151" x="47.5" y="279.252">frontend/faceguard-web</text></g><!--entity Backend--><g id="elem_Backend"><rect fill="#F1F1F1" height="65.2188" rx="2.5" ry="2.5" style="stroke:#181818;stroke-width:0.5;" width="172" x="219" y="415.1094"/><rect fill="#F1F1F1" height="10" style="stroke:#181818;stroke-width:0.5;" width="15" x="371" y="420.1094"/><rect fill="#F1F1F1" height="2" style="stroke:#181818;stroke-width:0.5;" width="4" x="369" y="422.1094"/><rect fill="#F1F1F1" height="2" style="stroke:#181818;stroke-width:0.5;" width="4" x="369" y="426.1094"/><text fill="#000000" font-family="sans-serif" font-size="14" lengthAdjust="spacing" textLength="107" x="234" y="449.6426">FastAPI backend</text><text fill="#000000" font-family="sans-serif" font-size="14" lengthAdjust="spacing" textLength="132" x="234" y="467.252">backend-service/app</text></g><!--entity DB--><g id="elem_DB"><path d="M221,580.1094 C221,570.1094 305,570.1094 305,570.1094 C305,570.1094 389,570.1094 389,580.1094 L389,641.9375 C389,651.9375 305,651.9375 305,651.9375 C305,651.9375 221,651.9375 221,641.9375 L221,580.1094 " fill="#F1F1F1" style="stroke:#181818;stroke-width:0.5;"/><path d="M221,580.1094 C221,590.1094 305,590.1094 305,590.1094 C305,590.1094 389,590.1094 389,580.1094 " fill="none" style="stroke:#181818;stroke-width:0.5;"/><text fill="#000000" font-family="sans-serif" font-size="14" lengthAdjust="spacing" textLength="77" x="231" y="608.6426">PostgreSQL</text><text fill="#000000" font-family="sans-serif" font-size="14" lengthAdjust="spacing" textLength="148" x="231" y="626.252">people, photos, events,</text><text fill="#000000" font-family="sans-serif" font-size="14" lengthAdjust="spacing" textLength="124" x="231" y="643.8613">devices, commands</text></g><!--entity Agent--><g id="elem_Agent"><rect fill="#F1F1F1" height="65.2188" rx="2.5" ry="2.5" style="stroke:#181818;stroke-width:0.5;" width="155" x="782.5" y="227.1094"/><rect fill="#F1F1F1" height="10" style="stroke:#181818;stroke-width:0.5;" width="15" x="917.5" y="232.1094"/><rect fill="#F1F1F1" height="2" style="stroke:#181818;stroke-width:0.5;" width="4" x="915.5" y="234.1094"/><rect fill="#F1F1F1" height="2" style="stroke:#181818;stroke-width:0.5;" width="4" x="915.5" y="238.1094"/><text fill="#000000" font-family="sans-serif" font-size="14" lengthAdjust="spacing" textLength="115" x="797.5" y="261.6426">Recognition agent</text><text fill="#000000" font-family="sans-serif" font-size="14" lengthAdjust="spacing" textLength="89" x="797.5" y="279.252">agent/main.py</text></g><!--entity CameraService--><g id="elem_CameraService"><rect fill="#F1F1F1" height="65.2188" rx="2.5" ry="2.5" style="stroke:#181818;stroke-width:0.5;" width="139" x="599.5" y="415.1094"/><rect fill="#F1F1F1" height="10" style="stroke:#181818;stroke-width:0.5;" width="15" x="718.5" y="420.1094"/><rect fill="#F1F1F1" height="2" style="stroke:#181818;stroke-width:0.5;" width="4" x="716.5" y="422.1094"/><rect fill="#F1F1F1" height="2" style="stroke:#181818;stroke-width:0.5;" width="4" x="716.5" y="426.1094"/><text fill="#000000" font-family="sans-serif" font-size="14" lengthAdjust="spacing" textLength="99" x="614.5" y="449.6426">Camera service</text><text fill="#000000" font-family="sans-serif" font-size="14" lengthAdjust="spacing" textLength="87" x="614.5" y="467.252">agent/camera</text></g><!--entity Recognition--><g id="elem_Recognition"><rect fill="#F1F1F1" height="65.2188" rx="2.5" ry="2.5" style="stroke:#181818;stroke-width:0.5;" width="150" x="999" y="415.1094"/><rect fill="#F1F1F1" height="10" style="stroke:#181818;stroke-width:0.5;" width="15" x="1129" y="420.1094"/><rect fill="#F1F1F1" height="2" style="stroke:#181818;stroke-width:0.5;" width="4" x="1127" y="422.1094"/><rect fill="#F1F1F1" height="2" style="stroke:#181818;stroke-width:0.5;" width="4" x="1127" y="426.1094"/><text fill="#000000" font-family="sans-serif" font-size="14" lengthAdjust="spacing" textLength="109" x="1014" y="449.6426">LBPH recognition</text><text fill="#000000" font-family="sans-serif" font-size="14" lengthAdjust="spacing" textLength="110" x="1014" y="467.252">agent/recognition</text></g><!--entity Commands--><g id="elem_Commands"><rect fill="#F1F1F1" height="65.2188" rx="2.5" ry="2.5" style="stroke:#181818;stroke-width:0.5;" width="148" x="599" y="227.1094"/><rect fill="#F1F1F1" height="10" style="stroke:#181818;stroke-width:0.5;" width="15" x="727" y="232.1094"/><rect fill="#F1F1F1" height="2" style="stroke:#181818;stroke-width:0.5;" width="4" x="725" y="234.1094"/><rect fill="#F1F1F1" height="2" style="stroke:#181818;stroke-width:0.5;" width="4" x="725" y="238.1094"/><text fill="#000000" font-family="sans-serif" font-size="14" lengthAdjust="spacing" textLength="103" x="614" y="261.6426">Command poller</text><text fill="#000000" font-family="sans-serif" font-size="14" lengthAdjust="spacing" textLength="108" x="614" y="279.252">agent/commands</text></g><!--entity SQLite--><g id="elem_SQLite"><rect fill="#F1F1F1" height="65.2188" rx="2.5" ry="2.5" style="stroke:#181818;stroke-width:0.5;" width="190" x="774" y="415.1094"/><rect fill="#F1F1F1" height="10" style="stroke:#181818;stroke-width:0.5;" width="15" x="944" y="420.1094"/><rect fill="#F1F1F1" height="2" style="stroke:#181818;stroke-width:0.5;" width="4" x="942" y="422.1094"/><rect fill="#F1F1F1" height="2" style="stroke:#181818;stroke-width:0.5;" width="4" x="942" y="426.1094"/><text fill="#000000" font-family="sans-serif" font-size="14" lengthAdjust="spacing" textLength="125" x="789" y="449.6426">Local SQLite queue</text><text fill="#000000" font-family="sans-serif" font-size="14" lengthAdjust="spacing" textLength="150" x="789" y="467.252">agent/core/database.py</text></g><!--entity Camera--><g id="elem_Camera"><rect fill="#F1F1F1" height="47.6094" rx="2.5" ry="2.5" style="stroke:#181818;stroke-width:0.5;" width="90" x="980" y="587.1094"/><rect fill="#F1F1F1" height="10" style="stroke:#181818;stroke-width:0.5;" width="15" x="1050" y="592.1094"/><rect fill="#F1F1F1" height="2" style="stroke:#181818;stroke-width:0.5;" width="4" x="1048" y="594.1094"/><rect fill="#F1F1F1" height="2" style="stroke:#181818;stroke-width:0.5;" width="4" x="1048" y="598.1094"/><text fill="#000000" font-family="sans-serif" font-size="14" lengthAdjust="spacing" textLength="50" x="995" y="621.6426">Camera</text></g><!--entity Door--><g id="elem_Door"><rect fill="#F1F1F1" height="47.6094" rx="2.5" ry="2.5" style="stroke:#181818;stroke-width:0.5;" width="106" x="1105" y="587.1094"/><rect fill="#F1F1F1" height="10" style="stroke:#181818;stroke-width:0.5;" width="15" x="1191" y="592.1094"/><rect fill="#F1F1F1" height="2" style="stroke:#181818;stroke-width:0.5;" width="4" x="1189" y="594.1094"/><rect fill="#F1F1F1" height="2" style="stroke:#181818;stroke-width:0.5;" width="4" x="1189" y="598.1094"/><text fill="#000000" font-family="sans-serif" font-size="14" lengthAdjust="spacing" textLength="66" x="1120" y="621.6426">Door relay</text></g><!--entity Admin--><g id="elem_Admin"><ellipse cx="128" cy="52.6094" fill="#F1F1F1" rx="8" ry="8" style="stroke:#181818;stroke-width:0.5;"/><path d="M128,60.6094 L128,87.6094 M115,68.6094 L141,68.6094 M128,87.6094 L115,102.6094 M128,87.6094 L141,102.6094 " fill="none" style="stroke:#181818;stroke-width:0.5;"/><text fill="#000000" font-family="sans-serif" font-size="14" lengthAdjust="spacing" textLength="83" x="86.5" y="118.6426">Administrator</text></g><!--link Admin to Frontend--><g id="link_Admin_Frontend"><path d="M128,122.3994 C128,153.8094 128,191.7194 128,221.1094 " fill="none" id="Admin-to-Frontend" style="stroke:#181818;stroke-width:1.0;"/><polygon fill="#181818" points="128,227.1094,132,218.1094,128,222.1094,124,218.1094,128,227.1094" style="stroke:#181818;stroke-width:1.0;"/><text fill="#000000" font-family="sans-serif" font-size="13" lengthAdjust="spacing" textLength="93" x="129" y="166.6045">HTTPS/HTTP UI</text></g><!--link Frontend to Backend--><g id="link_Frontend_Backend"><path d="M118.52,292.3594 C114.41,312.6494 112.92,338.6994 125,358.1094 C145.8,391.5094 177.689,410.5708 213.099,423.7908 " fill="none" id="Frontend-to-Backend" style="stroke:#181818;stroke-width:1.0;"/><polygon fill="#181818" points="218.72,425.8894,211.6875,418.9942,214.0358,424.1406,208.8894,426.4889,218.72,425.8894" style="stroke:#181818;stroke-width:1.0;"/><text fill="#000000" font-family="sans-serif" font-size="13" lengthAdjust="spacing" textLength="135" x="126" y="346.6045">REST API, WebSocket</text></g><!--link Backend to DB--><g id="link_Backend_DB"><path d="M305,480.1294 C305,505.8394 305,536.2994 305,564.0694 " fill="none" id="Backend-to-DB" style="stroke:#181818;stroke-width:1.0;"/><polygon fill="#181818" points="305,570.0694,309,561.0694,305,565.0694,301,561.0694,305,570.0694" style="stroke:#181818;stroke-width:1.0;"/><text fill="#000000" font-family="sans-serif" font-size="13" lengthAdjust="spacing" textLength="77" x="306" y="526.6045">SQLAlchemy</text></g><!--link Agent to Backend--><g id="link_Agent_Backend"><path d="M816.19,292.3294 C800.76,301.7894 782.81,310.9994 765,316.1094 C708.37,332.3594 555.57,304.5394 500,324.1094 C476.36,332.4394 475.83,344.1594 455,358.1094 C424.98,378.2094 395.5077,395.8494 367.0577,412.1294 " fill="none" id="Agent-to-Backend" style="stroke:#181818;stroke-width:1.0;"/><polygon fill="#181818" points="361.85,415.1094,371.6481,414.1112,366.1897,412.6261,367.6748,407.1676,361.85,415.1094" style="stroke:#181818;stroke-width:1.0;"/><text fill="#000000" font-family="sans-serif" font-size="13" lengthAdjust="spacing" textLength="132" x="501" y="338.6045">REST sync, heartbeat,</text><text fill="#000000" font-family="sans-serif" font-size="13" lengthAdjust="spacing" textLength="98" x="518" y="354.9561">command polling</text></g><!--link Commands to Backend--><g id="link_Commands_Backend"><path d="M598.64,262.4194 C501.44,266.5494 339.18,280.0294 302,324.1094 C281.08,348.9094 284.5544,381.8454 292.0744,409.1054 " fill="none" id="Commands-to-Backend" style="stroke:#181818;stroke-width:1.0;"/><polygon fill="#181818" points="293.67,414.8894,295.1326,405.1497,292.3404,410.0694,287.4207,407.2772,293.67,414.8894" style="stroke:#181818;stroke-width:1.0;"/><text fill="#000000" font-family="sans-serif" font-size="13" lengthAdjust="spacing" textLength="147" x="303" y="346.6045">command status updates</text></g><!--link Agent to SQLite--><g id="link_Agent_SQLite"><path d="M815.06,292.3394 C799.84,301.5594 782.3,310.6194 765,316.1094 C745.23,322.3794 686.02,308.8294 672,324.1094 C661.78,335.2394 661.83,346.9294 672,358.1094 C684.61,371.9794 738.43,359.5594 756,366.1094 C785.11,376.9694 808.9667,393.483 830.0467,411.013 " fill="none" id="Agent-to-SQLite" style="stroke:#181818;stroke-width:1.0;"/><polygon fill="#181818" points="834.66,414.8494,830.2977,406.0193,830.8156,411.6524,825.1825,412.1703,834.66,414.8494" style="stroke:#181818;stroke-width:1.0;"/><text fill="#000000" font-family="sans-serif" font-size="13" lengthAdjust="spacing" textLength="106" x="673" y="346.6045">offline event queue</text></g><!--link Agent to CameraService--><g id="link_Agent_CameraService"><path d="M815.58,292.1794 C800.25,301.5094 782.51,310.6694 765,316.1094 C753.4,319.7094 664.27,315.2094 656,324.1094 C633.65,348.1594 640.5764,381.8287 651.4664,409.4087 " fill="none" id="Agent-to-CameraService" style="stroke:#181818;stroke-width:1.0;"/><polygon fill="#181818" points="653.67,414.9894,654.0851,405.1493,651.8337,410.3388,646.6442,408.0873,653.67,414.9894" style="stroke:#181818;stroke-width:1.0;"/></g><!--link CameraService to Camera--><g id="link_CameraService_Camera"><path d="M715.55,480.2294 C728.67,488.5094 743.15,497.0794 757,504.1094 C832.63,542.4894 919.9253,574.5706 974.1153,593.1806 " fill="none" id="CameraService-to-Camera" style="stroke:#181818;stroke-width:1.0;"/><polygon fill="#181818" points="979.79,595.1294,972.5772,588.423,975.0611,593.5054,969.9788,595.9893,979.79,595.1294" style="stroke:#181818;stroke-width:1.0;"/><text fill="#000000" font-family="sans-serif" font-size="13" lengthAdjust="spacing" textLength="96" x="807" y="526.6045">OpenCV capture</text></g><!--link Agent to Recognition--><g id="link_Agent_Recognition"><path d="M830.9,292.4594 C815.39,313.3094 802.72,339.9494 820,358.1094 C832.43,371.1594 965.29,359.3594 982,366.1094 C1007.58,376.4494 1026.7819,392.6857 1043.5519,410.4557 " fill="none" id="Agent-to-Recognition" style="stroke:#181818;stroke-width:1.0;"/><polygon fill="#181818" points="1047.67,414.8194,1044.402,405.5285,1044.2383,411.183,1038.5838,411.0193,1047.67,414.8194" style="stroke:#181818;stroke-width:1.0;"/><text fill="#000000" font-family="sans-serif" font-size="13" lengthAdjust="spacing" textLength="134" x="821" y="346.6045">frames and model calls</text></g><!--link Recognition to Agent--><g id="link_Recognition_Agent"><path d="M1048.57,415.0594 C1026.67,388.9894 993.4,351.8694 960,324.1094 C946.24,312.6694 935.3511,304.8762 920.2811,295.3462 " fill="none" id="Recognition-to-Agent" style="stroke:#181818;stroke-width:1.0;"/><polygon fill="#181818" points="915.21,292.1394,920.6787,300.3304,919.4359,294.8118,924.9546,293.569,915.21,292.1394" style="stroke:#181818;stroke-width:1.0;"/><text fill="#000000" font-family="sans-serif" font-size="13" lengthAdjust="spacing" textLength="148" x="994" y="346.6045">person id, LBPH distance</text></g><!--link Agent to Door--><g id="link_Agent_Door"><path d="M937.8,269.1794 C1012.82,278.8894 1119.5,296.9894 1151,324.1094 C1227.41,389.8894 1189.0674,525.5423 1169.0774,581.2223 " fill="none" id="Agent-to-Door" style="stroke:#181818;stroke-width:1.0;"/><polygon fill="#181818" points="1167.05,586.8694,1173.8558,579.7503,1168.7395,582.1635,1166.3264,577.0471,1167.05,586.8694" style="stroke:#181818;stroke-width:1.0;"/><text fill="#000000" font-family="sans-serif" font-size="13" lengthAdjust="spacing" textLength="99" x="1196" y="453.1045">unlock command</text></g><!--SRC=[RLJBZjim3BpxAuYSdVgUGu4yDiq22pHTfzjBBhJCE49bIPNa3OAY_rvQVgoJpIMnoE6G78qTP504MnJqhK5NGXumI05hKrkZIGTuatH94XJ1E9WjorfgwOD3Fiu0FSH8ear9C5ivS_74yRy9W1WPPg_4vO0j4axEw42wFEhXAJjnywfjFhzG4KctVIhvrpElcSUX0cP_Vz1WYpuizyzGeFWTkVk7UOkNWZAqDXAlkZXNbnYmGC_SU-D3vIZ_yNBKbenLb88zcs1y2lJE_3uzwf9Q7evmrnfrwIFTPZLE-5HM11qACb1eWx4FX12cqZ98em4h3Xrr_CjgbFgBlNQAjf7RkZNMv13wROOY4QEnfWFaNVwszcMrtu7xQ3nKJqAHOZBRNVDkOx16AN9ZywaEFSJVTJQ2hunrbO7WJqFDn-J6KJRSmB1t1nm5tR4XBkW82jFe4jtravhh-_rlqnl3ZdMaiADlZqoUHCF2VFvrT1aiO7SuxFEi_OMVpycOQ56zPHZq-fGVW6sMmYygSiFXa0pP5hbPCOYtM2fnflgQn8jynE6lMgHm9dIX80niBp7HMEeg6GIzgnvWdb_InaDZMKFoaqQzs0imfnCJKMVWJlm9xDOkDwT9dcc-MzBhDn1ivyPD6QPENl1BpGKUsj5glZp51KfDvuftiO16AvPjM2EPahIe3hy0IyvpI9OfHFUM_CL1pPF-1m00]--></g></svg>