<?xml version="1.0" encoding="us-ascii" standalone="no"?><svg xmlns="http://www.w3.org/2000/svg" xmlns:xlink="http://www.w3.org/1999/xlink" contentStyleType="text/css" height="648px" preserveAspectRatio="none" style="width:891px;height:648px;background:#FFFFFF;" version="1.1" viewBox="0 0 891 648" width="891px" zoomAndPan="magnify"><defs/><g><text fill="#000000" font-family="sans-serif" font-size="14" font-weight="bold" lengthAdjust="spacing" textLength="284" x="302.75" y="29.5332">Recognition Event Submission Workflow</text><rect fill="none" height="138.2422" style="stroke:#000000;stroke-width:1.5;" width="465" x="69" y="231.625"/><line style="stroke:#181818;stroke-width:0.5;stroke-dasharray:5.0,5.0;" x1="37" x2="37" y1="107.2188" y2="568.9766"/><line style="stroke:#181818;stroke-width:0.5;stroke-dasharray:5.0,5.0;" x1="143" x2="143" y1="107.2188" y2="568.9766"/><line style="stroke:#181818;stroke-width:0.5;stroke-dasharray:5.0,5.0;" x1="315" x2="315" y1="107.2188" y2="568.9766"/><line style="stroke:#181818;stroke-width:0.5;stroke-dasharray:5.0,5.0;" x1="454" x2="454" y1="107.2188" y2="568.9766"/><line style="stroke:#181818;stroke-width:0.5;stroke-dasharray:5.0,5.0;" x1="581" x2="581" y1="107.2188" y2="568.9766"/><line style="stroke:#181818;stroke-width:0.5;stroke-dasharray:5.0,5.0;" x1="723.5" x2="723.5" y1="107.2188" y2="568.9766"/><line style="stroke:#181818;stroke-width:0.5;stroke-dasharray:5.0,5.0;" x1="830.5" x2="830.5" y1="107.2188" y2="568.9766"/><rect fill="#E2E2F0" height="31.6094" rx="2.5" ry="2.5" style="stroke:#181818;stroke-width:0.5;" width="64" x="5" y="74.6094"/><text fill="#000000" font-family="sans-serif" font-size="14" lengthAdjust="spacing" textLength="50" x="12" y="96.1426">Camera</text><rect fill="#E2E2F0" height="31.6094" rx="2.5" ry="2.5" style="stroke:#181818;stroke-width:0.5;" width="64" x="5" y="567.9766"/><text fill="#000000" font-family="sans-serif" font-size="14" lengthAdjust="spacing" textLength="50" x="12" y="589.5098">Camera</text><rect fill="#E2E2F0" height="31.6094" rx="2.5" ry="2.5" style="stroke:#181818;stroke-width:0.5;" width="129" x="79" y="74.6094"/><text fill="#000000" font-family="sans-serif" font-size="14" lengthAdjust="spacing" textLength="115" x="86" y="96.1426">Recognition agent</text><rect fill="#E2E2F0" height="31.6094" rx="2.5" ry="2.5" style="stroke:#181818;stroke-width:0.5;" width="129" x="79" y="567.9766"/><text fill="#000000" font-family="sans-serif" font-size="14" lengthAdjust="spacing" textLength="115" x="86" y="589.5098">Recognition agent</text><rect fill="#E2E2F0" height="31.6094" rx="2.5" ry="2.5" style="stroke:#181818;stroke-width:0.5;" width="119" x="256" y="74.6094"/><text fill="#000000" font-family="sans-serif" font-size="14" lengthAdjust="spacing" textLength="105" x="263" y="96.1426">LBPH recognizer</text><rect fill="#E2E2F0" height="31.6094" rx="2.5" ry="2.5" style="stroke:#181818;stroke-width:0.5;" width="119" x="256" y="567.9766"/><text fill="#000000" font-family="sans-serif" font-size="14" lengthAdjust="spacing" textLength="105" x="263" y="589.5098">LBPH recognizer</text><rect fill="#E2E2F0" height="31.6094" rx="2.5" ry="2.5" style="stroke:#181818;stroke-width:0.5;" width="139" x="385" y="74.6094"/><text fill="#000000" font-family="sans-serif" font-size="14" lengthAdjust="spacing" textLength="125" x="392" y="96.1426">Local SQLite queue</text><rect fill="#E2E2F0" height="31.6094" rx="2.5" ry="2.5" style="stroke:#181818;stroke-width:0.5;" width="139" x="385" y="567.9766"/><text fill="#000000" font-family="sans-serif" font-size="14" lengthAdjust="spacing" textLength="125" x="392" y="589.5098">Local SQLite queue</text><rect fill="#E2E2F0" height="31.6094" rx="2.5" ry="2.5" style="stroke:#181818;stroke-width:0.5;" width="94" x="534" y="74.6094"/><text fill="#000000" font-family="sans-serif" font-size="14" lengthAdjust="spacing" textLength="80" x="541" y="96.1426">Backend API</text><rect fill="#E2E2F0" height="31.6094" rx="2.5" ry="2.5" style="stroke:#181818;stroke-width:0.5;" width="94" x="534" y="567.9766"/><text fill="#000000" font-family="sans-serif" font-size="14" lengthAdjust="spacing" textLength="80" x="541" y="589.5098">Backend API</text><text fill="#000000" font-family="sans-serif" font-size="14" lengthAdjust="spacing" textLength="77" x="682.5" y="104.1426">PostgreSQL</text><path d="M706,53.6094 C706,43.6094 724,43.6094 724,43.6094 C724,43.6094 742,43.6094 742,53.6094 L742,79.6094 C742,89.6094 724,89.6094 724,89.6094 C724,89.6094 706,89.6094 706,79.6094 L706,53.6094 " fill="#E2E2F0" style="stroke:#181818;stroke-width:1.5;"/><path d="M706,53.6094 C706,63.6094 724,63.6094 724,63.6094 C724,63.6094 742,63.6094 742,53.6094 " fill="none" style="stroke:#181818;stroke-width:1.5;"/><text fill="#000000" font-family="sans-serif" font-size="14" lengthAdjust="spacing" textLength="77" x="682.5" y="582.5098">PostgreSQL</text><path d="M706,595.5859 C706,585.5859 724,585.5859 724,585.5859 C724,585.5859 742,585.5859 742,595.5859 L742,621.5859 C742,631.5859 724,631.5859 724,631.5859 C724,631.5859 706,631.5859 706,621.5859 L706,595.5859 " fill="#E2E2F0" style="stroke:#181818;stroke-width:1.5;"/><path d="M706,595.5859 C706,605.5859 724,605.5859 724,605.5859 C724,605.5859 742,605.5859 742,595.5859 " fill="none" style="stroke:#181818;stroke-width:1.5;"/><rect fill="#E2E2F0" height="31.6094" rx="2.5" ry="2.5" style="stroke:#181818;stroke-width:0.5;" width="110" x="775.5" y="74.6094"/><text fill="#000000" font-family="sans-serif" font-size="14" lengthAdjust="spacing" textLength="96" x="782.5" y="96.1426">Admin frontend</text><rect fill="#E2E2F0" height="31.6094" rx="2.5" ry="2.5" style="stroke:#181818;stroke-width:0.5;" width="110" x="775.5" y="567.9766"/><text fill="#000000" font-family="sans-serif" font-size="14" lengthAdjust="spacing" textLength="96" x="782.5" y="589.5098">Admin frontend</text><polygon fill="#181818" points="131.5,135.5703,141.5,139.5703,131.5,143.5703,135.5,139.5703" style="stroke:#181818;stroke-width:1.0;"/><line style="stroke:#181818;stroke-width:1.0;" x1="37" x2="137.5" y1="139.5703" y2="139.5703"/><text fill="#000000" font-family="sans-serif" font-size="13" lengthAdjust="spacing" textLength="32" x="44" y="134.7139">frame</text><polygon fill="#181818" points="303.5,165.9219,313.5,169.9219,303.5,173.9219,307.5,169.9219" style="stroke:#181818;stroke-width:1.0;"/><line style="stroke:#181818;stroke-width:1.0;" x1="143.5" x2="309.5" y1="169.9219" y2="169.9219"/><text fill="#000000" font-family="sans-serif" font-size="13" lengthAdjust="spacing" textLength="127" x="150.5" y="165.0654">recognize_face(frame)</text><polygon fill="#181818" points="154.5,212.625,144.5,216.625,154.5,220.625,150.5,216.625" style="stroke:#181818;stroke-width:1.0;"/><line style="stroke:#181818;stroke-width:1.0;stroke-dasharray:2.0,2.0;" x1="148.5" x2="314.5" y1="216.625" y2="216.625"/><text fill="#000000" font-family="sans-serif" font-size="13" lengthAdjust="spacing" textLength="138" x="160.5" y="195.417">recognized?, person_id,</text><text fill="#000000" font-family="sans-serif" font-size="13" lengthAdjust="spacing" textLength="148" x="160.5" y="211.7686">LBPH distance, threshold</text><path d="M69,231.625 L130,231.625 L130,239.9766 L120,249.9766 L69,249.9766 L69,231.625 " fill="#EEEEEE" style="stroke:#000000;stroke-width:1.5;"/><rect fill="none" height="138.2422" style="stroke:#000000;stroke-width:1.5;" width="465" x="69" y="231.625"/><text fill="#000000" font-family="sans-serif" font-size="13" font-weight="bold" lengthAdjust="spacing" textLength="16" x="84" y="246.1201">alt</text><text fill="#000000" font-family="sans-serif" font-size="11" font-weight="bold" lengthAdjust="spacing" textLength="219" x="145" y="245.0439">[recognized and access enabled locally]</text><line style="stroke:#181818;stroke-width:1.0;" x1="143.5" x2="185.5" y1="272.3281" y2="272.3281"/><line style="stroke:#181818;stroke-width:1.0;" x1="185.5" x2="185.5" y1="272.3281" y2="285.3281"/><line style="stroke:#181818;stroke-width:1.0;" x1="144.5" x2="185.5" y1="285.3281" y2="285.3281"/><polygon fill="#181818" points="154.5,281.3281,144.5,285.3281,154.5,289.3281,150.5,285.3281" style="stroke:#181818;stroke-width:1.0;"/><text fill="#000000" font-family="sans-serif" font-size="13" lengthAdjust="spacing" textLength="57" x="150.5" y="267.4717">open door</text><polygon fill="#181818" points="442.5,311.6797,452.5,315.6797,442.5,319.6797,446.5,315.6797" style="stroke:#181818;stroke-width:1.0;"/><line style="stroke:#181818;stroke-width:1.0;" x1="143.5" x2="448.5" y1="315.6797" y2="315.6797"/><text fill="#000000" font-family="sans-serif" font-size="13" lengthAdjust="spacing" textLength="127" x="150.5" y="310.8232">save recognized event</text><line style="stroke:#000000;stroke-width:1.0;stroke-dasharray:2.0,2.0;" x1="69" x2="534" y1="324.6797" y2="324.6797"/><text fill="#000000" font-family="sans-serif" font-size="11" font-weight="bold" lengthAdjust="spacing" textLength="116" x="74" y="336.0986">[unknown or denied]</text><polygon fill="#181818" points="442.5,357.8672,452.5,361.8672,442.5,365.8672,446.5,361.8672" style="stroke:#181818;stroke-width:1.0;"/><line style="stroke:#181818;stroke-width:1.0;" x1="143.5" x2="448.5" y1="361.8672" y2="361.8672"/><text fill="#000000" font-family="sans-serif" font-size="13" lengthAdjust="spacing" textLength="157" x="150.5" y="357.0107">save unknown/denied event</text><polygon fill="#181818" points="569,395.2188,579,399.2188,569,403.2188,573,399.2188" style="stroke:#181818;stroke-width:1.0;"/><line style="stroke:#181818;stroke-width:1.0;" x1="143.5" x2="575" y1="399.2188" y2="399.2188"/><text fill="#000000" font-family="sans-serif" font-size="13" lengthAdjust="spacing" textLength="200" x="150.5" y="394.3623">POST /api/v1/events or sync batch</text><polygon fill="#181818" points="712,425.5703,722,429.5703,712,433.5703,716,429.5703" style="stroke:#181818;stroke-width:1.0;"/><line style="stroke:#181818;stroke-width:1.0;" x1="581" x2="718" y1="429.5703" y2="429.5703"/><text fill="#000000" font-family="sans-serif" font-size="13" lengthAdjust="spacing" textLength="119" x="588" y="424.7139">persist AccessEvent</text><polygon fill="#181818" points="154.5,455.9219,144.5,459.9219,154.5,463.9219,150.5,459.9219" style="stroke:#181818;stroke-width:1.0;"/><line style="stroke:#181818;stroke-width:1.0;stroke-dasharray:2.0,2.0;" x1="148.5" x2="580" y1="459.9219" y2="459.9219"/><text fill="#000000" font-family="sans-serif" font-size="13" lengthAdjust="spacing" textLength="110" x="160.5" y="455.0654">accepted response</text><polygon fill="#181818" points="592,486.2734,582,490.2734,592,494.2734,588,490.2734" style="stroke:#181818;stroke-width:1.0;"/><line style="stroke:#181818;stroke-width:1.0;" x1="586" x2="829.5" y1="490.2734" y2="490.2734"/><text fill="#000000" font-family="sans-serif" font-size="13" lengthAdjust="spacing" textLength="108" x="598" y="485.417">GET /api/v1/events</text><polygon fill="#181818" points="712,516.625,722,520.625,712,524.625,716,520.625" style="stroke:#181818;stroke-width:1.0;"/><line style="stroke:#181818;stroke-width:1.0;" x1="581" x2="718" y1="520.625" y2="520.625"/><text fill="#000000" font-family="sans-serif" font-size="13" lengthAdjust="spacing" textLength="113" x="588" y="515.7686">query recent events</text><polygon fill="#181818" points="818.5,546.9766,828.5,550.9766,818.5,554.9766,822.5,550.9766" style="stroke:#181818;stroke-width:1.0;"/><line style="stroke:#181818;stroke-width:1.0;stroke-dasharray:2.0,2.0;" x1="581" x2="824.5" y1="550.9766" y2="550.9766"/><text fill="#000000" font-family="sans-serif" font-size="13" lengthAdjust="spacing" textLength="141" x="588" y="546.1201">events with raw distance</text><!--SRC=[TP9DRo8n38Rl-HKMfrQYGdlbq0hwiLsfKccfr4kboYG68e8pcmGG- -lNoJ3J6QhUOllnw_XDaasEu9MqNx5DrZFSxuaJp7UBhOqn9zvzs2oTFoXLOKXMsme5kCKj1Uob1bqPN8dC033299_wuDDqzWYXflzHADXh6vwnNgE3-SkJJGH_TxIZWh_aKv-SejuG6vZC_XJa52k32HSO2GOp7zCga8WLu6xQ5vYOhMLO1iz9-WhoS0gKgXU6g-jw8HWBA2bLHvB-Ma1gxNAVIzHqKT1BrK6kEa8jR6w6K568dZ-j6NvmySdOc90r3I6j0yMrTqQXIvqkGDaQjQOOWHWNJb8ks-QE2g2zO3FELyHWl0_TOl5JYX7tr9Mc_1qKER5lnnls1mOVm11RCZ_sdyXHZJKQucABDsyrXjdp_0r6MDdH_jUea35FY4VMiC2arwfXfUrkAXtP8V449cNZyb-_cCwUsP4goNnnhV8SIJMlsR_1x_lp2tmRAVyk7BCjMVcS4QWL7f-gSB1f3G4FxVEf_m00]--></g></svg>